<svg id="Layer_1" data-name="Layer 1" xmlns="http://www.w3.org/2000/svg" viewBox="0 0 86.9 122.88">
  <defs>
    <style>.cls-1{fill-rule:evenodd;}</style>
  </defs>

  <path class="cls-1" d="M11.09,31,86.9,50.48,75.81,91.85,0,72.4,11.09,31ZM83,27.62,55.43,37,60,27.81c-10.4-8.16-20.87-10.07-32.2-4.7C38,5.57,54.76,3,69.16,9.41L73.83,0,83,27.62Zm-79,67.65,27.53-9.41-4.59,9.22c10.4,8.16,20.87,10.06,32.21,4.7-10.22,17.53-26.95,20.12-41.34,13.69l-4.68,9.41L3.94,95.27Zm42.79-46A12.6,12.6,0,1,1,31.3,58.19a12.57,12.57,0,0,1,15.43-8.91Zm-24-8.38L71.85,53.2a6.33,6.33,0,0,0,4.48,7.74L72,77.3a6.34,6.34,0,0,0-7.75,4.48L15.05,69.48a6.32,6.32,0,0,0-4.48-7.74l4.37-16.36a6.36,6.36,0,0,0,7.77-4.48Z" />
</svg>