  <svg
    xmlns="http://www.w3.org/2000/svg"
    shape-rendering="geometricPrecision"
    text-rendering="geometricPrecision"
    image-rendering="optimizeQuality"
    fill-rule="evenodd"
    clip-rule="evenodd"
    viewBox="0 0 423 511.82"
  >
    <path
      d="M330.55 326.9c51.05 0 92.45 41.41 92.45 92.46s-41.4 92.46-92.45 92.46c-51.06 0-92.46-41.41-92.46-92.46s41.4-92.46 92.46-92.46zm62.86-303.66C393.41 10.46 382.93 0 370.16 0H23.25C10.46 0 0 10.47 0 23.24v430.29c0 12.78 10.46 23.25 23.25 23.25h203.21c-2.92-5.26-5.44-10.77-7.55-16.48H19.38c-1.28 0-2.44-1.13-2.44-2.44V21.07c0-1.32 1.16-2.44 2.44-2.44h355.28c1.3 0 2.44 1.19 2.44 2.44v288.92c5.67 2.43 11.12 5.29 16.31 8.53V23.24zM59.58 57.44h12.9v53.98h-12.9V57.44zm23.74 0h12.01l15.6 29.81V57.44h12.16v53.98h-12.16L95.42 81.78v29.64h-12.1V57.44zm45.78 0h13.43l9.38 38.85 9.24-38.85h13.05l-15.45 53.98h-13.93L129.1 57.44zm52.88 6.46c7.57-9.8 24.18-9.96 31.83-.13 6.65 8.54 7.16 25.92 3.17 35.76-1.64 4.03-4.02 7.18-7.11 9.42-6.12 4.46-16.89 4.46-23.22.47-3.08-1.94-5.58-5.01-7.49-9.21-4.53-9.96-3.96-27.52 2.82-36.31zm9.51 32.34c3.08 4.69 9.72 4.84 12.82.08 3.07-4.73 3.15-18.85-.1-23.67-3.19-4.72-9.56-4.69-12.71.05-3.19 4.84-3.2 18.7-.01 23.54zm36.91-38.8h12.91v53.98H228.4V57.44zm51.36 31.9 11.27 4.4c-.75 4.09-1.95 7.53-3.58 10.27-1.63 2.74-3.65 4.82-6.06 6.22-2.41 1.38-5.49 2.1-9.22 2.1-4.53 0-8.23-.85-11.1-2.56-2.87-1.7-5.35-4.71-7.42-8.99-2.08-4.28-3.13-9.79-3.13-16.47 0-8.92 1.83-15.79 5.5-20.58 3.66-4.79 8.85-7.19 15.55-7.19 5.25 0 9.38 1.38 12.38 4.12 2.98 2.75 5.22 6.97 6.68 12.68L279.3 76.6c-.4-1.64-.82-2.84-1.25-3.59-.73-1.26-1.61-2.24-2.65-2.92a6.297 6.297 0 0 0-3.49-1.04c-2.93 0-5.16 1.54-6.72 4.56-1.16 2.25-1.77 5.79-1.77 10.6 0 5.98.7 10.07 2.1 12.28 1.41 2.21 3.38 3.33 5.92 3.33 2.46 0 4.32-.91 5.58-2.7 1.25-1.78 2.17-4.38 2.74-7.78zm19.02-31.9h34.41v11.54h-21.5v8.59h19.93v11.01h-19.93v10.63h22.14v12.21h-35.05V57.44zM100.07 193.86c-4.15 0-7.51-3.37-7.51-7.52 0-4.15 3.36-7.52 7.51-7.52h149.69c4.15 0 7.52 3.37 7.52 7.52 0 4.15-3.37 7.52-7.52 7.52H100.07zm0 123.17c-4.15 0-7.51-3.36-7.51-7.51a7.51 7.51 0 0 1 7.51-7.52h183.31c3.42 0 6.3 2.28 7.21 5.4-7.16 2.56-14.01 5.8-20.47 9.63H100.07zm0-45.61a7.51 7.51 0 0 1-7.51-7.52c0-4.15 3.36-7.51 7.51-7.51h149.69c4.15 0 7.52 3.36 7.52 7.51 0 4.16-3.37 7.52-7.52 7.52H100.07zm220.62-38.05H72.71v149.22h144.75c-1.58 4.88-2.86 9.9-3.81 15.04H65.19c-4.15 0-7.51-3.37-7.51-7.52V148.45c0-4.15 3.36-7.52 7.51-7.52h263.02c4.15 0 7.52 3.37 7.52 7.52v152.13a119.1 119.1 0 0 0-15.04.3v-67.51zM72.71 218.33h247.98v-62.36H72.71v62.36zm267.98 160.63a38.33 38.33 0 0 1 12.44 8.3 38.16 38.16 0 0 1 8.3 12.4c3.34 8.09 3.81 17.18 1.31 25.56-.85 2.87-2.04 5.6-3.51 8.15l13.28 14.98a2.78 2.78 0 0 1-.17 3.92l-10.59 9.66a2.746 2.746 0 0 1-3.9-.17l-12.61-14.37a38.144 38.144 0 0 1-8.07 3.51l-.1.03c-3.49 1.04-7.18 1.6-10.97 1.6-5.14 0-10.08-1.04-14.6-2.9a38.473 38.473 0 0 1-12.43-8.29 38.098 38.098 0 0 1-8.3-12.41 38.338 38.338 0 0 1 0-29.23c1.93-4.68 4.78-8.91 8.29-12.43 3.51-3.53 7.73-6.37 12.4-8.31 9.33-3.85 19.91-3.84 29.23 0zm2.29 18.44a24.221 24.221 0 0 0-7.76-5.2l-.13-.05c-5.75-2.34-12.39-2.32-18.12.05a24.221 24.221 0 0 0-7.76 5.2c-6.83 6.83-8.85 17.13-5.21 26.03 1.22 2.93 3 5.56 5.2 7.76 2.22 2.2 4.86 3.99 7.76 5.2 5.78 2.39 12.48 2.4 18.26 0a23.9 23.9 0 0 0 7.76-5.2c2.2-2.2 4-4.85 5.21-7.76 2.39-5.8 2.39-12.46 0-18.26l-.07-.14c-1.18-2.85-2.96-5.45-5.14-7.63z"
    />
  </svg>